<mxfile host="app.diagrams.net" modified="2022-05-17T00:47:14.585Z" agent="5.0 (Macintosh; Intel Mac OS X 10_15_7) AppleWebKit/605.1.15 (KHTML, like Gecko) Version/15.4 Safari/605.1.15" etag="RvWWWdnEu0g-t7Rw3Pez" version="18.0.5" type="github">
  <diagram name="Page-1" id="2c0d36ab-eaac-3732-788b-9136903baeff">
    <mxGraphModel dx="946" dy="645" grid="1" gridSize="10" guides="1" tooltips="1" connect="1" arrows="1" fold="1" page="1" pageScale="1.5" pageWidth="1169" pageHeight="827" background="none" math="0" shadow="0">
      <root>
        <mxCell id="0" />
        <mxCell id="1" parent="0" />
        <mxCell id="12" value="目标" style="rounded=1;fillColor=#f8cecc;strokeColor=#b85450;fontStyle=1;fontFamily=Tahoma;fontSize=14" parent="1" vertex="1">
          <mxGeometry x="519.9999999999999" y="230" width="190" height="80" as="geometry" />
        </mxCell>
        <mxCell id="25" value="思维训练" style="rounded=1;fontStyle=1;fontFamily=Tahoma;fontSize=14" parent="1" vertex="1">
          <mxGeometry x="350" y="380" width="130" height="60" as="geometry" />
        </mxCell>
        <mxCell id="NsayyPvm4-ttKUY7uxAQ-128" style="edgeStyle=orthogonalEdgeStyle;rounded=0;orthogonalLoop=1;jettySize=auto;html=1;fontSize=12;fontColor=#FF0000;strokeWidth=2;" edge="1" parent="1" source="26" target="NsayyPvm4-ttKUY7uxAQ-123">
          <mxGeometry relative="1" as="geometry">
            <mxPoint x="260" y="495.5" as="targetPoint" />
          </mxGeometry>
        </mxCell>
        <mxCell id="NsayyPvm4-ttKUY7uxAQ-135" style="edgeStyle=orthogonalEdgeStyle;rounded=0;orthogonalLoop=1;jettySize=auto;html=1;exitX=0;exitY=0.75;exitDx=0;exitDy=0;entryX=1;entryY=0.75;entryDx=0;entryDy=0;fontSize=14;fontColor=#000000;strokeWidth=2;" edge="1" parent="1" source="26" target="NsayyPvm4-ttKUY7uxAQ-125">
          <mxGeometry relative="1" as="geometry">
            <Array as="points">
              <mxPoint x="280" y="496" />
              <mxPoint x="240" y="496" />
              <mxPoint x="240" y="591" />
            </Array>
          </mxGeometry>
        </mxCell>
        <mxCell id="26" value="需求分析" style="rounded=1;fontStyle=1;fontFamily=Tahoma;fontSize=14" parent="1" vertex="1">
          <mxGeometry x="280" y="465.5" width="130" height="60" as="geometry" />
        </mxCell>
        <mxCell id="NsayyPvm4-ttKUY7uxAQ-130" value="" style="edgeStyle=orthogonalEdgeStyle;rounded=0;orthogonalLoop=1;jettySize=auto;html=1;fontSize=14;fontColor=#FF0000;strokeWidth=2;" edge="1" parent="1" source="27" target="NsayyPvm4-ttKUY7uxAQ-129">
          <mxGeometry relative="1" as="geometry">
            <Array as="points">
              <mxPoint x="240" y="686" />
              <mxPoint x="240" y="660" />
            </Array>
          </mxGeometry>
        </mxCell>
        <mxCell id="NsayyPvm4-ttKUY7uxAQ-132" style="edgeStyle=orthogonalEdgeStyle;rounded=0;orthogonalLoop=1;jettySize=auto;html=1;exitX=0;exitY=0.5;exitDx=0;exitDy=0;entryX=1.008;entryY=0.625;entryDx=0;entryDy=0;entryPerimeter=0;fontSize=14;fontColor=#000000;strokeWidth=2;" edge="1" parent="1" source="27" target="NsayyPvm4-ttKUY7uxAQ-131">
          <mxGeometry relative="1" as="geometry" />
        </mxCell>
        <mxCell id="27" value="测试设计" style="rounded=1;fontStyle=1;fontFamily=Tahoma;fontSize=14" parent="1" vertex="1">
          <mxGeometry x="281" y="655.5" width="130" height="60" as="geometry" />
        </mxCell>
        <mxCell id="NsayyPvm4-ttKUY7uxAQ-134" style="edgeStyle=orthogonalEdgeStyle;rounded=0;orthogonalLoop=1;jettySize=auto;html=1;exitX=0;exitY=1;exitDx=0;exitDy=0;entryX=0;entryY=0.75;entryDx=0;entryDy=0;fontSize=14;fontColor=#000000;strokeWidth=2;" edge="1" parent="1" source="29" target="NsayyPvm4-ttKUY7uxAQ-133">
          <mxGeometry relative="1" as="geometry">
            <Array as="points">
              <mxPoint x="570" y="430" />
              <mxPoint x="570" y="771" />
            </Array>
          </mxGeometry>
        </mxCell>
        <mxCell id="NsayyPvm4-ttKUY7uxAQ-149" style="edgeStyle=none;orthogonalLoop=1;jettySize=auto;html=1;exitX=1;exitY=0.5;exitDx=0;exitDy=0;dashed=1;fontSize=14;fontColor=#000000;endArrow=none;endFill=0;strokeWidth=2;curved=1;" edge="1" parent="1" source="29" target="NsayyPvm4-ttKUY7uxAQ-144">
          <mxGeometry relative="1" as="geometry">
            <Array as="points">
              <mxPoint x="780" y="740" />
              <mxPoint x="890" y="830" />
            </Array>
          </mxGeometry>
        </mxCell>
        <mxCell id="NsayyPvm4-ttKUY7uxAQ-151" value="一个初级CI" style="edgeLabel;html=1;align=center;verticalAlign=middle;resizable=0;points=[];fontSize=14;fontColor=#000000;" vertex="1" connectable="0" parent="NsayyPvm4-ttKUY7uxAQ-149">
          <mxGeometry x="0.2205" y="6" relative="1" as="geometry">
            <mxPoint as="offset" />
          </mxGeometry>
        </mxCell>
        <mxCell id="29" value="工程能力&#xa;（构建一个完整的软件工程）" style="rounded=1;fontStyle=1;fontFamily=Tahoma;fontSize=14" parent="1" vertex="1">
          <mxGeometry x="530" y="370" width="170" height="60" as="geometry" />
        </mxCell>
        <mxCell id="30" value="测试代码" style="rounded=1;fontStyle=1;fontFamily=Tahoma;fontSize=14" parent="1" vertex="1">
          <mxGeometry x="592" y="545.5" width="130" height="60" as="geometry" />
        </mxCell>
        <mxCell id="31" value="工程管理配置文件&#xa;（git，ant，maven等）" style="rounded=1;fontStyle=1;fontFamily=Tahoma;fontSize=14" parent="1" vertex="1">
          <mxGeometry x="592" y="635.5" width="148" height="60" as="geometry" />
        </mxCell>
        <mxCell id="32" value="可编译、运行" style="rounded=1;fontStyle=1;fontFamily=Tahoma;fontSize=14" parent="1" vertex="1">
          <mxGeometry x="592" y="465.5" width="130" height="60" as="geometry" />
        </mxCell>
        <mxCell id="NsayyPvm4-ttKUY7uxAQ-143" style="edgeStyle=orthogonalEdgeStyle;orthogonalLoop=1;jettySize=auto;html=1;exitX=0.25;exitY=1;exitDx=0;exitDy=0;entryX=0;entryY=0.5;entryDx=0;entryDy=0;fontSize=14;fontColor=#000000;endArrow=classic;endFill=1;strokeWidth=2;rounded=0;" edge="1" parent="1" source="33" target="NsayyPvm4-ttKUY7uxAQ-142">
          <mxGeometry relative="1" as="geometry">
            <Array as="points">
              <mxPoint x="830" y="420" />
              <mxPoint x="830" y="686" />
            </Array>
          </mxGeometry>
        </mxCell>
        <mxCell id="33" value="编码能力" style="rounded=1;fontStyle=1;fontFamily=Tahoma;fontSize=14" parent="1" vertex="1">
          <mxGeometry x="812" y="360" width="130" height="60" as="geometry" />
        </mxCell>
        <mxCell id="NsayyPvm4-ttKUY7uxAQ-139" value="" style="edgeStyle=orthogonalEdgeStyle;curved=1;orthogonalLoop=1;jettySize=auto;html=1;dashed=1;fontSize=14;fontColor=#000000;endArrow=none;endFill=0;strokeWidth=2;" edge="1" parent="1" source="34" target="NsayyPvm4-ttKUY7uxAQ-138">
          <mxGeometry relative="1" as="geometry" />
        </mxCell>
        <mxCell id="34" value="软件结构" style="rounded=1;fontStyle=1;fontFamily=Tahoma;fontSize=14" parent="1" vertex="1">
          <mxGeometry x="877" y="465.5" width="130" height="60" as="geometry" />
        </mxCell>
        <mxCell id="NsayyPvm4-ttKUY7uxAQ-141" value="" style="edgeStyle=orthogonalEdgeStyle;curved=1;orthogonalLoop=1;jettySize=auto;html=1;dashed=1;fontSize=14;fontColor=#000000;endArrow=none;endFill=0;strokeWidth=2;" edge="1" parent="1" source="35" target="NsayyPvm4-ttKUY7uxAQ-140">
          <mxGeometry relative="1" as="geometry" />
        </mxCell>
        <mxCell id="35" value="clean code" style="rounded=1;fontStyle=1;fontFamily=Tahoma;fontSize=14" parent="1" vertex="1">
          <mxGeometry x="877" y="570" width="130" height="60" as="geometry" />
        </mxCell>
        <mxCell id="70" value="" style="edgeStyle=elbowEdgeStyle;elbow=horizontal;strokeWidth=2;rounded=0" parent="1" source="25" target="26" edge="1">
          <mxGeometry x="-23" y="135.5" width="100" height="100" as="geometry">
            <mxPoint x="-23" y="235.5" as="sourcePoint" />
            <mxPoint x="77" y="135.5" as="targetPoint" />
            <Array as="points">
              <mxPoint x="430" y="490" />
              <mxPoint x="397" y="535.5" />
            </Array>
          </mxGeometry>
        </mxCell>
        <mxCell id="71" value="" style="edgeStyle=elbowEdgeStyle;elbow=horizontal;strokeWidth=2;rounded=0" parent="1" source="25" target="27" edge="1">
          <mxGeometry x="-23" y="135.5" width="100" height="100" as="geometry">
            <mxPoint x="-23" y="235.5" as="sourcePoint" />
            <mxPoint x="77" y="135.5" as="targetPoint" />
            <Array as="points">
              <mxPoint x="430" y="470" />
              <mxPoint x="380" y="510" />
              <mxPoint x="397" y="575.5" />
            </Array>
          </mxGeometry>
        </mxCell>
        <mxCell id="73" value="" style="edgeStyle=elbowEdgeStyle;elbow=horizontal;strokeWidth=2;rounded=0" parent="1" source="29" target="30" edge="1">
          <mxGeometry x="-23" y="135.5" width="100" height="100" as="geometry">
            <mxPoint x="-23" y="235.5" as="sourcePoint" />
            <mxPoint x="77" y="135.5" as="targetPoint" />
            <Array as="points">
              <mxPoint x="570" y="576" />
            </Array>
          </mxGeometry>
        </mxCell>
        <mxCell id="74" value="" style="edgeStyle=elbowEdgeStyle;elbow=horizontal;strokeWidth=2;rounded=0" parent="1" source="29" target="31" edge="1">
          <mxGeometry x="-23" y="135.5" width="100" height="100" as="geometry">
            <mxPoint x="-23" y="235.5" as="sourcePoint" />
            <mxPoint x="77" y="135.5" as="targetPoint" />
            <Array as="points">
              <mxPoint x="570" y="610" />
              <mxPoint x="567" y="575.5" />
            </Array>
          </mxGeometry>
        </mxCell>
        <mxCell id="75" value="" style="edgeStyle=elbowEdgeStyle;elbow=horizontal;strokeWidth=2;rounded=0" parent="1" target="32" edge="1">
          <mxGeometry x="-23" y="135.5" width="100" height="100" as="geometry">
            <mxPoint x="570" y="440" as="sourcePoint" />
            <mxPoint x="77" y="135.5" as="targetPoint" />
            <Array as="points">
              <mxPoint x="570" y="500" />
              <mxPoint x="570" y="460" />
              <mxPoint x="567" y="615.5" />
            </Array>
          </mxGeometry>
        </mxCell>
        <mxCell id="76" value="" style="edgeStyle=elbowEdgeStyle;elbow=horizontal;strokeWidth=2;rounded=0" parent="1" source="33" target="34" edge="1">
          <mxGeometry x="-23" y="135.5" width="100" height="100" as="geometry">
            <mxPoint x="-23" y="235.5" as="sourcePoint" />
            <mxPoint x="77" y="135.5" as="targetPoint" />
            <Array as="points">
              <mxPoint x="830" y="460" />
            </Array>
          </mxGeometry>
        </mxCell>
        <mxCell id="77" value="" style="edgeStyle=elbowEdgeStyle;elbow=horizontal;strokeWidth=2;rounded=0" parent="1" source="33" target="35" edge="1">
          <mxGeometry x="-23" y="135.5" width="100" height="100" as="geometry">
            <mxPoint x="-23" y="235.5" as="sourcePoint" />
            <mxPoint x="77" y="135.5" as="targetPoint" />
            <Array as="points">
              <mxPoint x="830" y="520" />
            </Array>
          </mxGeometry>
        </mxCell>
        <mxCell id="100" value="" style="edgeStyle=elbowEdgeStyle;elbow=vertical;strokeWidth=2;rounded=0" parent="1" source="12" target="25" edge="1">
          <mxGeometry x="-23" y="135.5" width="100" height="100" as="geometry">
            <mxPoint x="-23" y="235.5" as="sourcePoint" />
            <mxPoint x="77" y="135.5" as="targetPoint" />
            <Array as="points">
              <mxPoint x="615" y="340" />
            </Array>
          </mxGeometry>
        </mxCell>
        <mxCell id="101" value="" style="edgeStyle=elbowEdgeStyle;elbow=vertical;strokeWidth=2;rounded=0" parent="1" source="12" target="29" edge="1">
          <mxGeometry x="-23" y="135.5" width="100" height="100" as="geometry">
            <mxPoint x="-23" y="235.5" as="sourcePoint" />
            <mxPoint x="77" y="135.5" as="targetPoint" />
            <Array as="points">
              <mxPoint x="615" y="410" />
            </Array>
          </mxGeometry>
        </mxCell>
        <mxCell id="102" value="" style="edgeStyle=elbowEdgeStyle;elbow=vertical;strokeWidth=2;rounded=0" parent="1" source="12" target="33" edge="1">
          <mxGeometry x="-23" y="135.5" width="100" height="100" as="geometry">
            <mxPoint x="-23" y="235.5" as="sourcePoint" />
            <mxPoint x="77" y="135.5" as="targetPoint" />
            <Array as="points">
              <mxPoint x="720" y="340" />
            </Array>
          </mxGeometry>
        </mxCell>
        <mxCell id="NsayyPvm4-ttKUY7uxAQ-136" style="edgeStyle=orthogonalEdgeStyle;orthogonalLoop=1;jettySize=auto;html=1;exitX=0.5;exitY=0;exitDx=0;exitDy=0;fontSize=14;fontColor=#000000;strokeWidth=2;endArrow=none;endFill=0;dashed=1;curved=1;entryX=0;entryY=0.5;entryDx=0;entryDy=0;" edge="1" parent="1" source="NsayyPvm4-ttKUY7uxAQ-123" target="NsayyPvm4-ttKUY7uxAQ-131">
          <mxGeometry relative="1" as="geometry">
            <Array as="points">
              <mxPoint x="10" y="466" />
              <mxPoint x="10" y="760" />
              <mxPoint x="80" y="760" />
            </Array>
          </mxGeometry>
        </mxCell>
        <mxCell id="NsayyPvm4-ttKUY7uxAQ-137" value="证明你覆盖了所有客户想要的&lt;br&gt;" style="edgeLabel;html=1;align=center;verticalAlign=middle;resizable=0;points=[];fontSize=14;fontColor=#000000;" vertex="1" connectable="0" parent="NsayyPvm4-ttKUY7uxAQ-136">
          <mxGeometry x="-0.2354" y="11" relative="1" as="geometry">
            <mxPoint x="79" y="196" as="offset" />
          </mxGeometry>
        </mxCell>
        <mxCell id="NsayyPvm4-ttKUY7uxAQ-123" value="必须做&#xa;（题目明确说的）&#xa;" style="rounded=1;fontStyle=1;fontFamily=Tahoma;fontSize=14" vertex="1" parent="1">
          <mxGeometry x="70" y="465.5" width="130" height="60" as="geometry" />
        </mxCell>
        <mxCell id="NsayyPvm4-ttKUY7uxAQ-125" value="可能要做的&lt;br&gt;（挖掘客户需求）&lt;br&gt;&lt;font color=&quot;#ff0000&quot;&gt;需要写吗？&lt;/font&gt;" style="rounded=1;whiteSpace=wrap;html=1;fontSize=14;fontColor=default;fontStyle=1" vertex="1" parent="1">
          <mxGeometry x="70" y="545.5" width="130" height="60" as="geometry" />
        </mxCell>
        <mxCell id="NsayyPvm4-ttKUY7uxAQ-129" value="简单" style="rounded=1;fontStyle=1;fontFamily=Tahoma;fontSize=14" vertex="1" parent="1">
          <mxGeometry x="75" y="630" width="130" height="60" as="geometry" />
        </mxCell>
        <mxCell id="NsayyPvm4-ttKUY7uxAQ-131" value="&lt;font color=&quot;#000000&quot;&gt;&lt;span style=&quot;caret-color: rgb(0, 0, 0);&quot;&gt;&lt;b&gt;全面&lt;/b&gt;&lt;/span&gt;&lt;/font&gt;" style="rounded=1;whiteSpace=wrap;html=1;fontSize=14;fontColor=#FF0000;" vertex="1" parent="1">
          <mxGeometry x="80" y="735.5" width="120" height="60" as="geometry" />
        </mxCell>
        <mxCell id="NsayyPvm4-ttKUY7uxAQ-133" value="&lt;b&gt;必要的文档&lt;/b&gt;" style="rounded=1;whiteSpace=wrap;html=1;fontSize=14;fontColor=#000000;" vertex="1" parent="1">
          <mxGeometry x="592" y="725.5" width="120" height="60" as="geometry" />
        </mxCell>
        <mxCell id="NsayyPvm4-ttKUY7uxAQ-138" value="分包" style="whiteSpace=wrap;html=1;fontSize=14;fontFamily=Tahoma;rounded=1;fontStyle=1;" vertex="1" parent="1">
          <mxGeometry x="1080" y="465.5" width="120" height="60" as="geometry" />
        </mxCell>
        <mxCell id="NsayyPvm4-ttKUY7uxAQ-140" value="魔术数字" style="whiteSpace=wrap;html=1;fontSize=14;fontFamily=Tahoma;rounded=1;fontStyle=1;" vertex="1" parent="1">
          <mxGeometry x="1080" y="570" width="120" height="60" as="geometry" />
        </mxCell>
        <mxCell id="NsayyPvm4-ttKUY7uxAQ-145" value="" style="edgeStyle=orthogonalEdgeStyle;rounded=0;orthogonalLoop=1;jettySize=auto;html=1;fontSize=14;fontColor=#000000;endArrow=none;endFill=0;strokeWidth=2;dashed=1;" edge="1" parent="1" source="NsayyPvm4-ttKUY7uxAQ-142" target="NsayyPvm4-ttKUY7uxAQ-144">
          <mxGeometry relative="1" as="geometry" />
        </mxCell>
        <mxCell id="NsayyPvm4-ttKUY7uxAQ-148" style="edgeStyle=orthogonalEdgeStyle;rounded=0;orthogonalLoop=1;jettySize=auto;html=1;exitX=1;exitY=0.75;exitDx=0;exitDy=0;entryX=0;entryY=0.5;entryDx=0;entryDy=0;dashed=1;fontSize=14;fontColor=#000000;endArrow=none;endFill=0;strokeWidth=2;" edge="1" parent="1" source="NsayyPvm4-ttKUY7uxAQ-142" target="NsayyPvm4-ttKUY7uxAQ-147">
          <mxGeometry relative="1" as="geometry">
            <Array as="points">
              <mxPoint x="1002" y="686" />
              <mxPoint x="1042" y="686" />
              <mxPoint x="1042" y="770" />
            </Array>
          </mxGeometry>
        </mxCell>
        <mxCell id="NsayyPvm4-ttKUY7uxAQ-142" value="安全" style="rounded=1;whiteSpace=wrap;html=1;fontSize=14;fontColor=#000000;fontStyle=1" vertex="1" parent="1">
          <mxGeometry x="882" y="656" width="120" height="60" as="geometry" />
        </mxCell>
        <mxCell id="NsayyPvm4-ttKUY7uxAQ-144" value="很多工具来守护，KW、Coverity" style="whiteSpace=wrap;html=1;fontSize=14;fontColor=#000000;rounded=1;fontStyle=1;" vertex="1" parent="1">
          <mxGeometry x="1082" y="656" width="120" height="60" as="geometry" />
        </mxCell>
        <mxCell id="NsayyPvm4-ttKUY7uxAQ-147" value="&lt;b&gt;自己也要时刻警惕&lt;/b&gt;" style="rounded=1;whiteSpace=wrap;html=1;fontSize=14;fontColor=#000000;" vertex="1" parent="1">
          <mxGeometry x="1082" y="740" width="120" height="60" as="geometry" />
        </mxCell>
      </root>
    </mxGraphModel>
  </diagram>
</mxfile>
